<?xml version="1.0" encoding="UTF-8" standalone="no"?>
<svg width="39px" height="29px" viewBox="0 0 39 29" version="1.1" xmlns="http://www.w3.org/2000/svg" xmlns:xlink="http://www.w3.org/1999/xlink" xmlns:sketch="http://www.bohemiancoding.com/sketch/ns">
    <!-- Generator: Sketch 3.3.3 (12081) - http://www.bohemiancoding.com/sketch -->
    <title>Dibujo Copy 2</title>
    <desc>Created with Sketch.</desc>
    <defs></defs>
    <g id="Page-1" stroke="none" stroke-width="1" fill="none" fill-rule="evenodd" sketch:type="MSPage">
        <g id="Dibujo-Copy-2" sketch:type="MSLayerGroup" fill="#000000">
            <g id="Group" sketch:type="MSShapeGroup">
                <path d="M3.046875,15.4255319 C3.719625,15.4255319 4.265625,14.8726809 4.265625,14.1914894 C4.265625,11.8104043 6.17967187,9.87234043 8.53125,9.87234043 C8.70004688,9.87234043 8.97182813,9.91429787 9.25823438,9.97229787 L9.25823438,11.106383 C9.25823438,11.7875745 9.80423438,12.3404255 10.4769844,12.3404255 C11.1497344,12.3404255 11.6957344,11.7875745 11.6957344,11.106383 L11.6957344,9.12019149 C12.3495937,5.26195745 15.6176719,2.46808511 19.5,2.46808511 C23.3823281,2.46808511 26.6504063,5.26195745 27.3042656,9.12019149 L27.3042656,11.106383 C27.3042656,11.7875745 27.8496563,12.3404255 28.5230156,12.3404255 C29.196375,12.3404255 29.7417656,11.7875745 29.7417656,11.106383 L29.7417656,9.97229787 C30.0281719,9.91429787 30.2999531,9.87234043 30.46875,9.87234043 C32.8203281,9.87234043 34.734375,11.8104043 34.734375,14.1914894 C34.734375,14.8726809 35.280375,15.4255319 35.953125,15.4255319 C36.625875,15.4255319 37.171875,14.8726809 37.171875,14.1914894 C37.171875,10.4492553 34.1646094,7.40425532 30.46875,7.40425532 C30.1597969,7.40425532 29.791125,7.453 29.4395156,7.51778723 C28.1647031,3.09251064 24.17025,0 19.5,0 C14.82975,0 10.8352969,3.09251064 9.559875,7.51778723 C9.208875,7.453 8.84020313,7.40425532 8.53125,7.40425532 C4.83539062,7.40425532 1.828125,10.4492553 1.828125,14.1914894 C1.828125,14.8726809 2.374125,15.4255319 3.046875,15.4255319 L3.046875,15.4255319 Z" id="Shape"></path>
                <path d="M14.625,19.1276596 C14.625,19.8088511 15.1703906,20.3617021 15.84375,20.3617021 L37.78125,20.3617021 C38.454,20.3617021 39,19.8088511 39,19.1276596 C39,18.4464681 38.454,17.893617 37.78125,17.893617 L15.84375,17.893617 C15.1703906,17.893617 14.625,18.4464681 14.625,19.1276596 L14.625,19.1276596 Z" id="Shape"></path>
                <path d="M19.5,22.212766 C18.8266406,22.212766 18.28125,22.765617 18.28125,23.4468085 C18.28125,24.128 18.8266406,24.6808511 19.5,24.6808511 L35.953125,24.6808511 C36.625875,24.6808511 37.171875,24.128 37.171875,23.4468085 C37.171875,22.765617 36.625875,22.212766 35.953125,22.212766 L19.5,22.212766 L19.5,22.212766 Z" id="Shape"></path>
                <path d="M37.78125,26.5319149 L23.15625,26.5319149 C22.4828906,26.5319149 21.9375,27.084766 21.9375,27.7659574 C21.9375,28.4471489 22.4828906,29 23.15625,29 L37.78125,29 C38.454,29 39,28.4471489 39,27.7659574 C39,27.084766 38.454,26.5319149 37.78125,26.5319149 L37.78125,26.5319149 Z" id="Shape"></path>
                <path d="M1.21875,20.3617021 L12.1875,20.3617021 C12.86025,20.3617021 13.40625,19.8088511 13.40625,19.1276596 C13.40625,18.4464681 12.86025,17.893617 12.1875,17.893617 L1.21875,17.893617 C0.546,17.893617 0,18.4464681 0,19.1276596 C0,19.8088511 0.546,20.3617021 1.21875,20.3617021 L1.21875,20.3617021 Z" id="Shape"></path>
                <path d="M3.046875,22.212766 C2.374125,22.212766 1.828125,22.765617 1.828125,23.4468085 C1.828125,24.128 2.374125,24.6808511 3.046875,24.6808511 L15.84375,24.6808511 C16.5165,24.6808511 17.0625,24.128 17.0625,23.4468085 C17.0625,22.765617 16.5165,22.212766 15.84375,22.212766 L3.046875,22.212766 L3.046875,22.212766 Z" id="Shape"></path>
                <path d="M19.5,26.5319149 L1.21875,26.5319149 C0.546,26.5319149 0,27.084766 0,27.7659574 C0,28.4471489 0.546,29 1.21875,29 L19.5,29 C20.17275,29 20.71875,28.4471489 20.71875,27.7659574 C20.71875,27.084766 20.17275,26.5319149 19.5,26.5319149 L19.5,26.5319149 Z" id="Shape"></path>
            </g>
        </g>
    </g>
</svg>